<svg xmlns="http://www.w3.org/2000/svg" viewBox="0 0 128 128">
  <linearGradient id="a" gradientUnits="userSpaceOnUse" x1="70.252" y1="1237.476" x2="170.659" y2="1151.089" gradientTransform="matrix(.563 0 0 -.568 -29.215 707.817)">
    <stop offset="0" stop-color="#5A9FD4"/>
    <stop offset="1" stop-color="#306998"/>
  </linearGradient>
  <path fill="url(#a)" d="M63.391 1.191c-4.222.02-8.252.379-11.8 1.012-10.45 1.846-12.348 5.71-12.348 12.835v9.404h24.695v3.135h-34.055c-7.17 0-13.46 4.31-15.438 12.503-2.27 9.408-2.371 15.271 0 25.093 1.755 7.31 5.953 12.503 13.122 12.503h8.487v-11.284c0-8.15 7.052-15.32 15.438-15.32h24.664c6.87 0 12.348-5.684 12.348-12.556V15.038c0-6.703-5.64-11.737-12.348-12.835-4.246-.71-8.652-1.031-12.865-1.012zm-13.354 7.57c2.55 0 4.646 2.127 4.646 4.738 0 2.605-2.096 4.707-4.646 4.707-2.563 0-4.646-2.102-4.646-4.707 0-2.61 2.083-4.738 4.646-4.738z"/>
  <linearGradient id="b" gradientUnits="userSpaceOnUse" x1="209.474" y1="1098.811" x2="173.62" y2="1149.537" gradientTransform="matrix(.563 0 0 -.568 -29.215 707.817)">
    <stop offset="0" stop-color="#FFD43B"/>
    <stop offset="1" stop-color="#FFE873"/>
  </linearGradient>
  <path fill="url(#b)" d="M91.682 27.577v10.961c0 8.5-7.209 15.671-15.438 15.671H51.58c-6.755 0-12.348 5.788-12.348 12.556v22.751c0 6.704 5.816 10.658 12.348 12.556 7.816 2.295 15.312 2.711 24.664 0 6.216-1.8 12.348-5.423 12.348-12.556v-9.404H64.235v-3.135h37.012c7.17 0 9.839-5.006 12.348-12.503 2.578-7.727 2.467-15.16 0-25.093-1.771-7.14-5.166-12.503-12.348-12.503h-9.565zM77.44 101.36c2.563 0 4.646 2.103 4.646 4.708 0 2.61-2.083 4.738-4.646 4.738-2.55 0-4.646-2.128-4.646-4.738 0-2.605 2.096-4.708 4.646-4.708z"/>
</svg>
